<svg xmlns="http://www.w3.org/2000/svg" viewBox="0 0 290.6 512"><title>Asset 1</title><g id="Layer_2" data-name="Layer 2"><g id="Layer_1-2" data-name="Layer 1"><path d="M179.5,512h-82a24.86,24.86,0,0,1-24.84-24.84V302.23H24.84A24.88,24.88,0,0,1,0,277.39V198.14a24.86,24.86,0,0,1,24.84-24.83H72.67V133.62c0-39.34,12.36-72.82,35.73-96.8S164.68,0,203.28,0l62.53.1A24.87,24.87,0,0,1,290.6,24.94V98.52a24.86,24.86,0,0,1-24.83,24.83h-42.1c-12.84,0-16.11,2.57-16.81,3.36-1.15,1.31-2.52,5-2.52,15.22V173.3h58.27a25.24,25.24,0,0,1,12.29,3.13,24.9,24.9,0,0,1,12.78,21.72v79.24a24.86,24.86,0,0,1-24.83,24.83H204.34V487.16A24.86,24.86,0,0,1,179.5,512Zm-76.81-30h71.63V288.79a16.6,16.6,0,0,1,16.58-16.58h66.73V203.32H190.9a16.6,16.6,0,0,1-16.58-16.58V142c0-11.72,1.19-25.06,10-35.08C195,94.8,211.87,93.4,223.62,93.4h36.93V30.11L203.25,30c-62,0-100.56,39.7-100.56,103.6v53.12A16.6,16.6,0,0,1,86.11,203.3H30v68.89H86.11a16.6,16.6,0,0,1,16.58,16.58Z"/></g></g></svg>