<?xml version="1.0" encoding="utf-8"?>
<!-- Generator: Adobe Illustrator 22.1.0, SVG Export Plug-In . SVG Version: 6.00 Build 0)  -->
<svg version="1.1" id="Layer_1" xmlns="http://www.w3.org/2000/svg" xmlns:xlink="http://www.w3.org/1999/xlink" x="0px" y="0px"
	 viewBox="0 0 202.6 179.2" style="enable-background:new 0 0 202.6 179.2;" xml:space="preserve">
<style type="text/css">
	.st0{fill:#FFD590;}
	.st1{fill:none;}
	.st2{fill:#FDD590;}
	.st3{fill:none;stroke:#FDD590;stroke-width:2;stroke-linecap:round;stroke-linejoin:round;}
	.st4{fill:none;stroke:#FDD590;stroke-width:2;stroke-miterlimit:10;}
	.st5{fill:#FFFFFF;stroke:#FDD590;stroke-miterlimit:10;}
	.st6{fill:none;stroke:#FDD590;stroke-width:2.1;stroke-miterlimit:10;}
</style>
<title>Asset 1</title>
<g id="Layer_2_1_">
	<g id="logo">
		<g id="_Group_">
			<g id="_Group_2">
				<path class="st0" d="M78.2,73.2c0.8-0.8,1.9-1.4,3.4-1.4c0.1,0,0.3,0,0.4,0l-1.6-3.3h2.2l-2.2-4.7h2.2l-8.5-17.7l-8.5,17.7H68
					l-2.2,4.7H68l-2.2,4.7h5.3c0.8-0.9,2-1.6,3.6-1.6C76.3,71.7,77.4,72.3,78.2,73.2z"/>
				<path class="st0" d="M78.2,73.2c0.8-0.8,1.9-1.4,3.4-1.4c0.1,0,0.3,0,0.4,0l-1.6-3.3h2.2l-2.2-4.7h2.2l-8.5-17.7v25.6
					c0.1,0,0.3,0,0.4,0C76.3,71.7,77.4,72.3,78.2,73.2z"/>
			</g>
			<path id="_Path_4" class="st1" d="M158.3,96.1c0,0-10.3-1.2-14.2,7.6c0,0-1.5,6.2-5.5,8c0,0,12.6-3.5,16.7-6.3
				c0,0,4.6-5.2,6.3-6.5"/>
			<g id="_Group_3">
				<path class="st0" d="M148.4,66.5l-0.9,1.8c0.5-0.2,1.1-0.3,1.8-0.2c0.8,0.1,1.6,0.2,2.3,0.3c2.1,0.2,4.2-0.3,6.3-0.1
					c2.3,0.2,4.4,1.2,6.7,1.4c0.5,0,0.9,0.2,1.4,0.3c0.8-0.1,1.7,0,2.6,0.3l-1.9-3.9h3.3l-3.3-6.9h3.3l-12.5-26.2L145,59.5h3.3
					l-3.3,6.9L148.4,66.5L148.4,66.5z"/>
				<path class="st0" d="M158,68.4c2.3,0.2,4.4,1.2,6.7,1.4c0.5,0,0.9,0.2,1.4,0.3c0.8-0.1,1.6,0,2.6,0.3l-1.9-3.9h3.3l-3.3-6.9h3.3
					l-12.5-26.2v34.9C157.7,68.4,157.9,68.4,158,68.4z"/>
			</g>
			<g id="_Group_4">
				<path class="st0" d="M127.1,65.6h1.9l-1.5,3.1c0.3,0,0.5,0.1,0.8,0.2c4,1.2,8.4,0.5,12.5,0.3c0.2,0,0.4,0,0.6,0l-1.7-3.6h1.9
					l-2-4h1.9l-7.3-15.3L127,61.6h2L127.1,65.6z"/>
				<path class="st0" d="M140.8,69.2c0.2,0,0.4,0,0.6,0l-1.7-3.5h1.9l-1.9-4h1.9l-7.3-15.3v23.1C136.5,69.5,138.7,69.3,140.8,69.2z"
					/>
			</g>
			<g id="_Group_5">
				<path class="st0" d="M57.4,60.5h2.8L49.5,38.9L38.8,60.5h2.8l-2.8,5.7h2.8l-2.3,4.6c1.1,0.1,2,0.5,2.7,1.1h6.2v2.8
					c0.2,0,0.4,0,0.7,0c0.8,0,1.4,0.1,2,0.4V72h2.2c0.7-1.7,2.1-2.9,4.4-2.9c0.5,0,0.9,0.1,1.3,0.2l-1.5-2.9h2.8L57.4,60.5z"/>
				<path class="st0" d="M57.5,69c0.5,0,0.9,0.1,1.3,0.2l-1.5-2.9h2.8l-2.8-5.7h2.8L49.5,38.9v35.8c0.5,0.1,0.9,0.2,1.3,0.3v-3.1H53
					C53.7,70.3,55.2,69,57.5,69z"/>
			</g>
			<g id="_Path_11">
				<path class="st0" d="M28.1,65.8c1.2-0.2,2.4,0,3.3,0.7c5.9-35.2,36.5-62.1,73.3-62.1c38.8,0,70.7,29.9,74,67.9
					c1.5-0.4,3.2-0.2,4.5,0.6c-3-40.7-37-72.9-78.5-72.9c-39,0-71.4,28.4-77.6,65.6C27.4,65.6,27.8,65.7,28.1,65.8z"/>
				<path class="st0" d="M176.2,98.8c-8.8,31.2-37.5,54.2-71.5,54.2c-34.9,0-64.2-24.1-72.1-56.5c0,0,0,0,0,0.1
					c-1,1.6-2.4,2.3-3.9,2.4c9,33.6,39.7,58.5,76.1,58.5c37,0,68.1-25.7,76.5-60.2c-1.2,0.9-2.5,1.4-4.1,1.6
					C176.7,98.9,176.4,98.8,176.2,98.8z"/>
			</g>
			<g id="_Group_6">
				<path id="_Compound_Path_" class="st0" d="M27.5,119.7l-0.9-1.9l-11.7,5.7l-0.9-1.8l11.7-5.7l-0.9-1.9l1.9-0.9l2.7,5.6
					L27.5,119.7z"/>
				<path id="_Compound_Path_2" class="st0" d="M33.1,124.9l-13,7.8l-1-1.8l6.1-3.7l-1.2-1.8l-6.1,3.7l-1-1.8l13-7.8l1,1.8l-5.1,3
					l1.1,1.8l5.1-3L33.1,124.9z"/>
				<path id="_Compound_Path_3" class="st0" d="M26.6,136l-1.1-1.6l-3.1,1.8l-1.1-1.6l13.7-7l1.2,1.6l-11,10.8l-1.1-1.6L26.6,136z
					 M28.2,134.5l4.1-3.7l0,0l-4.8,2.7L28.2,134.5z"/>
				<path id="_Compound_Path_4" class="st0" d="M43.4,137.9L31.9,148l-1.4-1.5l7-6.2l-7.9,5.2l-0.9-1.1l6.2-7.2l0,0l-7,6.2l-1.3-1.5
					l11.4-10l1.8,2.1l-6,7l0,0l7.7-5L43.4,137.9z"/>
				<path id="_Compound_Path_5" class="st0" d="M44.2,141.8l-2.6,2.7l1.5,1.4l-1.5,1.6l-1.5-1.5l-3.4,3.6l2.2,2.2l-1.5,1.6l-3.7-3.6
					l10.5-11l3.5,3.4l-1.5,1.6L44.2,141.8z"/>
				<path id="_Compound_Path_6" class="st0" d="M48.9,148.6l0.4-0.5c0.7-0.8,0.7-1.6,0.3-1.9c-0.5-0.3-1.1-0.2-1.4,0.2
					c0,0,0,0.1-0.1,0.1c-0.4,0.5-0.7,1.1-0.7,1.8L47,152c0,1.4-0.5,2.8-1.4,3.8c-1.4,1.7-3.2,1.8-4.5,0.7s-1.5-2.8-0.1-4.5l1-1.2
					l1.6,1.3l-0.9,1.1c-0.6,0.7-0.6,1.3-0.2,1.6s1,0.2,1.6-0.5c0.5-0.6,0.7-1.3,0.8-2l0.2-2.9c0.2-2,0.2-2.6,1.5-4.3
					s3.1-1.8,4.5-0.7s1.4,2.9,0.2,4.5l-0.7,0.8L48.9,148.6z"/>
				<path id="_Compound_Path_7" class="st0" d="M52.3,164.4l1.7-6.2l-0.5-0.4l-3.3,5.2l-1.7-1.1l8.1-12.8l2.9,1.8
					c1.7,1.1,1.4,3.2,0.1,5.2s-2.6,2.7-3.8,2.8l-1.7,6.6L52.3,164.4z M54.6,155.9l0.5,0.4c1.1,0.7,1.5,0.7,2.7-1.1
					c0.7-1,1-1.9,0.3-2.4l-1.1-0.7L54.6,155.9z"/>
				<path id="_Compound_Path_8" class="st0" d="M57.5,167.3l-1.8-1L63,153l1.8,1L57.5,167.3z"/>
				<path id="_Compound_Path_9" class="st0" d="M63.5,170.3l-2-0.9l4.1-14.9l2,0.9l-3.4,10.8l0,0l6.1-9.6l2,0.9L63.5,170.3z"/>
				<path id="_Compound_Path_10" class="st0" d="M74.3,160.6l-1.3,3.5l2,0.7l-0.8,2l-1.9-0.7l-1.7,4.6l2.9,1.1l-0.8,2l-4.8-1.7
					l5.2-14.3l4.6,1.7l-0.7,2L74.3,160.6z"/>
				<path id="_Compound_Path_11" class="st0" d="M79.3,175.8l-0.2-6.4l-0.6-0.2l-1.6,5.9l-1.9-0.5l4-14.6l3.3,0.9
					c1.9,0.5,2.3,2.6,1.6,4.9c-0.6,2.2-1.7,3.4-2.8,3.8l0.3,6.8L79.3,175.8z M79.1,167l0.6,0.2c1.3,0.4,1.7,0.2,2.3-1.9
					c0.3-1.2,0.4-2.1-0.4-2.4l-1.3-0.4L79.1,167z"/>
				<path id="_Compound_Path_12" class="st0" d="M91.2,174.6l-2-0.3l-0.9,3.4l-1.9-0.3l4.6-14.7l2,0.3l0.1,15.4l-2-0.3L91.2,174.6z
					 M91.2,172.4l0.2-5.5l0,0l-1.4,5.3L91.2,172.4z"/>
				<path id="_Compound_Path_13" class="st0" d="M102.4,163.9l-1,15.1l-2-0.1l-1.4-8.8l0,0l-0.6,8.7l-2-0.1l1.1-15.1l2.1,0.1
					l1.3,8.5l0,0l0.6-8.4L102.4,163.9z"/>
				<path id="_Compound_Path_14" class="st0" d="M107.7,168.2V167c0-0.5-0.4-1.2-1-1.2s-1,0.8-1,1.3l0.2,8.8c0,0.5,0.3,1.2,1.1,1.2
					s1.1-0.7,1.1-2v-2.3H107l-0.1-2.2l3-0.1l0.1,4.7c0,2.1-0.8,3.9-2.9,4c-1.7,0-3.1-1.3-3.2-3c0-0.1,0-0.2,0-0.3l-0.2-8.8
					c0-1.5,0.7-3.4,3-3.5c1.7,0,3.1,1.5,3.1,3.2v0.1v1.2L107.7,168.2z"/>
				<path id="_Compound_Path_15" class="st0" d="M116.8,176.2l0.2,2.2l-4.7,0.5l-1.5-15.1l2-0.2l1.3,13L116.8,176.2z"/>
				<path id="_Compound_Path_16" class="st0" d="M118.9,164.9l0.6,3.7l2-0.3l0.4,2.1l-2,0.3l0.8,4.9l3.1-0.5l0.4,2.1l-5.1,0.9
					l-2.5-15l4.8-0.8l0.4,2.1L118.9,164.9z"/>
				<path id="_Compound_Path_17" class="st0" d="M130.8,175.6l-3.4-5.4l-0.6,0.2l1.5,5.9l-1.9,0.5l-3.7-14.8l3.3-0.8
					c1.9-0.5,3.3,1.1,3.9,3.5c0.6,2.2,0.2,3.8-0.6,4.6l3.7,5.8L130.8,175.6z M126.2,168.1l0.6-0.2c1.3-0.3,1.6-0.6,1-2.8
					c-0.3-1.2-0.7-2.1-1.5-1.9l-1.3,0.3L126.2,168.1z"/>
				<path id="_Compound_Path_18" class="st0" d="M134.6,163l-0.2-0.6c-0.4-1-0.9-1.4-1.4-1.3s-0.7,0.8-0.5,1.4
					c0.2,0.6,0.6,1.2,1.1,1.6l2.9,2.3c1.2,0.7,2.1,1.9,2.5,3.2c0.7,2.1-0.2,3.7-1.7,4.2s-3.2-0.2-3.9-2.2l-0.5-1.5l1.9-0.7l0.5,1.3
					c0.3,0.9,0.8,1.2,1.3,1s0.7-0.8,0.4-1.6c-0.2-0.7-0.7-1.3-1.3-1.7l-2.4-1.6c-1.6-1.2-2.1-1.6-2.8-3.5s0.1-3.6,1.7-4.2
					s3.2,0.3,3.9,2.2l0.3,1L134.6,163z"/>
				<path id="_Compound_Path_19" class="st0" d="M147.6,165.5l-1.8,0.9l1.2,3.4l-1.7,0.8l-4.5-14.7l1.8-0.9l8.8,12.6l-1.8,0.9
					L147.6,165.5z M146.4,163.6l-2.9-4.6l0,0l1.8,5.2L146.4,163.6z"/>
				<path id="_Compound_Path_20" class="st0" d="M150.8,155.3l-0.3-0.5c-0.5-0.9-1.2-1.2-1.6-1c-0.5,0.3-0.6,0.9-0.3,1.4
					c0,0,0,0.1,0.1,0.1c0.3,0.6,0.8,1.1,1.4,1.3l3.3,1.6c1.3,0.5,2.4,1.4,3.1,2.7c1.1,1.9,0.5,3.6-0.9,4.5s-3.2,0.4-4.3-1.4
					l-0.8-1.4l1.8-1.1l0.7,1.2c0.5,0.8,1,1,1.5,0.7s0.5-0.9,0.1-1.7c-0.4-0.6-0.9-1.1-1.6-1.4l-2.6-1.1c-1.8-0.9-2.4-1.1-3.5-2.9
					s-0.6-3.5,0.9-4.4s3.2-0.3,4.2,1.4l0.5,0.9L150.8,155.3z"/>
				<path id="_Compound_Path_21" class="st0" d="M156.7,151.4l-0.4-0.5c-0.6-0.9-1.3-1.1-1.7-0.8c-0.4,0.4-0.5,1.1-0.1,1.5l0,0
					c0.4,0.6,0.9,1,1.5,1.2l3.5,1.4c1.3,0.4,2.5,1.2,3.3,2.4c1.3,1.8,0.8,3.6-0.5,4.5s-3.1,0.7-4.4-1.1l-0.9-1.3l1.7-1.2l0.8,1.2
					c0.5,0.8,1.1,0.9,1.5,0.6s0.5-0.9,0-1.7c-0.4-0.6-1-1.1-1.7-1.3l-2.7-0.9c-1.9-0.8-2.5-0.9-3.7-2.6s-0.9-3.5,0.5-4.5
					s3.2-0.6,4.4,1.1l0.6,0.9L156.7,151.4z"/>
				<path id="_Compound_Path_22" class="st0" d="M163.4,144.7l5.6,6.7c1,1.2,1.5,3.2-0.1,4.5c-1.7,1.4-3.5,0.5-4.5-0.7l-5.6-6.7
					c-1-1.2-1.6-3.1,0.2-4.6C160.6,142.7,162.4,143.5,163.4,144.7z M161.9,146c-0.3-0.4-1.1-0.8-1.5-0.4s-0.2,1.3,0,1.6l5.6,6.7
					c0.3,0.4,1.1,0.8,1.6,0.4s0.2-1.2-0.1-1.6L161.9,146z"/>
				<path id="_Compound_Path_23" class="st0" d="M168.2,141.8l-0.8-0.9c-0.3-0.3-1.1-0.6-1.5-0.2c-0.4,0.5-0.3,1.2,0.1,1.6l6.1,6.2
					c0.4,0.5,1.1,0.5,1.6,0.2c0.4-0.4,0.1-1.2-0.2-1.5l-0.8-0.9l1.5-1.4l0.8,0.9c1.3,1.1,1.5,3.1,0.3,4.4c0,0,0,0.1-0.1,0.1
					c-1.2,1.2-3.2,1.2-4.4,0c-0.1-0.1-0.1-0.1-0.2-0.2l-6.2-6.3c-1.3-1.1-1.5-3-0.4-4.3s3-1.5,4.3-0.4c0.2,0.1,0.3,0.3,0.4,0.5
					l0.8,0.9L168.2,141.8z"/>
				<path id="_Compound_Path_24" class="st0" d="M180,144.9l-1.4,1.5l-11.3-10.1l1.4-1.5L180,144.9z"/>
				<path id="_Compound_Path_25" class="st0" d="M181.3,137.9l-1.2,1.6l2.5,2.5l-1.2,1.5l-10.5-11.2l1.3-1.6l13.4,7.6l-1.3,1.6
					L181.3,137.9z M179.4,136.8l-4.7-2.9l0,0l3.9,3.9L179.4,136.8z"/>
				<path id="_Compound_Path_26" class="st0" d="M178.4,125.5l-1.2,1.7l10.8,7.4l-1.1,1.7l-10.8-7.4l-1.2,1.7l-1.8-1.2l3.5-5.1
					L178.4,125.5z"/>
				<path id="_Compound_Path_27" class="st0" d="M191.2,129.4l-1,1.8l-13-7.8l1-1.7L191.2,129.4z"/>
				<path id="_Compound_Path_28" class="st0" d="M184.5,116.6l7.8,4c1.4,0.7,2.6,2.4,1.7,4.2c-1,2-3.1,1.8-4.4,1.1l-7.8-4
					c-1.4-0.7-2.6-2.3-1.6-4.3c0.9-1.5,2.8-2,4.3-1.1C184.4,116.6,184.5,116.6,184.5,116.6z M183.6,118.4c-0.4-0.2-1.3-0.3-1.6,0.2
					s0.3,1.3,0.6,1.5l7.8,4c0.4,0.2,1.3,0.3,1.6-0.3s-0.3-1.2-0.7-1.4L183.6,118.4z"/>
				<path id="_Compound_Path_29" class="st0" d="M184.5,108.4l14,5.8l-0.8,1.9l-8.7-1.5l0,0l8,3.3l-0.8,1.9l-14.1-5.8l0.8-2l8.5,1.5
					l0,0l-7.8-3.2L184.5,108.4z"/>
			</g>
			<g id="_Group_7">
				<g id="_Group_8">
					<path id="_Compound_Path_30" class="st0" d="M75.2,133.9h-1.5l-0.3,2.1h-1.5l1.8-8.8h1.6l1.8,8.8h-1.6L75.2,133.9z M74.9,132.6
						l-0.5-3.2l0,0l-0.5,3.2H74.9z"/>
					<path id="_Compound_Path_31" class="st0" d="M83.5,127.2v8.8h-1.6l-1.6-5.1l0,0v5.1h-1.6v-8.8h1.7l1.5,4.8l0,0v-4.9L83.5,127.2
						z"/>
					<path id="_Compound_Path_32" class="st0" d="M88.5,129.7V129c-0.1-0.4-0.5-0.6-0.9-0.5c-0.3,0.1-0.4,0.3-0.5,0.5v5.1
						c0,0.4,0.4,0.7,0.8,0.7c0.6,0,0.9-0.4,0.9-1.1v-1.4h-0.9V131h2.3v2.7c0.1,1.2-0.8,2.2-2,2.3c-0.1,0-0.2,0-0.3,0
						c-1.8,0-2.4-1.1-2.4-2v-5c0-0.9,0.6-2,2.4-2c1.1-0.1,2.2,0.7,2.3,1.9v0.1v0.7H88.5z"/>
					<path id="_Compound_Path_33" class="st0" d="M95.5,134.7v1.3h-3.6v-8.8h1.6v7.6L95.5,134.7z"/>
					<path id="_Compound_Path_34" class="st0" d="M98.8,128.4v2.2h1.6v1.3h-1.6v2.9h2.4v1.3h-4v-8.8h3.8v1.3L98.8,128.4z"/>
					<path id="_Compound_Path_35" class="st0" d="M106.5,136l-1.5-3.6h-0.5v3.6h-1.6v-8.8h2.6c1.5,0,2.2,1.1,2.2,2.5
						c0.1,1-0.4,2-1.3,2.5l1.7,3.8H106.5z M104.5,131.1h0.5c1,0,1.3-0.1,1.3-1.4c0-0.7-0.2-1.3-0.8-1.3h-1V131.1z"/>
					<path id="_Compound_Path_36" class="st0" d="M112.5,129.6v-0.4c0-0.6-0.3-1-0.7-1c-0.4,0-0.7,0.3-0.7,0.7l0,0
						c0,0.4,0.1,0.8,0.4,1.1l1.6,1.8c0.6,0.6,1,1.4,1,2.2c0,1.1-1,2-2.1,2c-0.1,0-0.1,0-0.2,0c-1.1,0.2-2.1-0.6-2.3-1.7
						c0-0.1,0-0.2,0-0.3v-0.9h1.6v0.8c0,0.5,0.3,0.8,0.7,0.8c0.4,0,0.7-0.3,0.7-0.7v-0.1c0-0.5-0.2-0.9-0.5-1.2l-1.3-1.4
						c-0.8-1-1.2-1.3-1.2-2.5c0.2-1.3,1.4-2.1,2.6-2c1,0.1,1.8,0.9,2,2v0.6L112.5,129.6z"/>
					<path id="_Compound_Path_37" class="st0" d="M115.9,134.4h1.6v1.6h-1.6V134.4z"/>
					<path id="_Compound_Path_38" class="st0" d="M124,129v5.1c0,1.1-1,2-2.1,2h-0.1c-1.7,0-2.4-1.1-2.4-2V129c0-0.9,0.6-2,2.4-2
						c1.1-0.1,2.1,0.7,2.3,1.8C124,128.9,124,128.9,124,129z M122.4,129c0-0.4-0.3-0.7-0.7-0.8c-0.4,0-0.8,0.3-0.8,0.7v5.1
						c0,0.4,0.3,0.8,0.8,0.8l0,0c0.4,0,0.7-0.4,0.7-0.8V129z"/>
					<path id="_Compound_Path_39" class="st0" d="M129.4,136l-1.5-3.6h-0.5v3.6h-1.6v-8.8h2.6c1.5,0,2.2,1.1,2.2,2.5
						c0.1,1-0.4,2-1.3,2.5l1.6,3.8H129.4z M127.4,131.1h0.5c1,0,1.3-0.1,1.3-1.4c0-0.7-0.2-1.3-0.8-1.3h-1L127.4,131.1z"/>
					<path id="_Compound_Path_40" class="st0" d="M135.6,129.7V129c0-0.4-0.4-0.7-0.8-0.7c-0.4,0-0.6,0.3-0.7,0.7v5.1
						c0,0.4,0.4,0.7,0.8,0.7c0.6,0,0.9-0.4,0.9-1.1v-1.4h-0.9V131h2.3v2.7c0.1,1.2-0.8,2.2-2,2.3c-0.1,0-0.2,0-0.3,0
						c-1.8,0-2.4-1.1-2.4-2v-5c0-0.9,0.6-2,2.4-2c1.1-0.1,2.2,0.7,2.3,1.9v0.1v0.7H135.6z"/>
				</g>
			</g>
			<g id="_Group_9">
				<g id="_Group_10">
					<path id="_Compound_Path_41" class="st0" d="M80.7,31.3v2.4h1.8v1.4h-1.8v3.2h2.7v1.4H79v-9.8h4.2v1.4
						C83.2,31.3,80.7,31.3,80.7,31.3z"/>
					<path id="_Compound_Path_42" class="st0" d="M88.5,32.6v-0.4c0-0.7-0.4-1.1-0.8-1.1s-0.8,0.3-0.8,0.7c0,0,0,0,0,0.1
						c0,0.5,0.2,0.9,0.5,1.2l1.8,2c0.7,0.6,1.1,1.5,1.1,2.5c-0.1,1.3-1.1,2.3-2.4,2.2c-0.1,0-0.1,0-0.2,0c-1.3,0.1-2.4-0.7-2.5-2
						c0-0.1,0-0.1,0-0.2v-1H87v0.9c0,0.6,0.3,0.9,0.8,0.9c0.4,0,0.8-0.4,0.8-0.8v-0.1c0-0.5-0.2-1-0.6-1.3l-1.4-1.5
						c-0.9-1.1-1.3-1.4-1.3-2.8c0.2-1.4,1.5-2.4,2.9-2.2c1.1,0.2,2,1,2.2,2.2v0.7L88.5,32.6z"/>
					<path id="_Compound_Path_43" class="st0" d="M97.4,31.2h-1.8v8.4h-1.7v-8.4h-1.8v-1.4h5.3V31.2z"/>
					<path id="_Compound_Path_44" class="st0" d="M98.5,37.9h1.8v1.8h-1.8V37.9z"/>
					<path id="_Compound_Path_45" class="st0" d="M106.2,29.9h1.8v9.8h-1.8v-8.4h-0.8v-1L106.2,29.9z"/>
					<path id="_Compound_Path_46" class="st0" d="M110,33.7c0-0.1,0-1.2,0-1.4c-0.1-1.4,1-2.5,2.3-2.6c0.2,0,0.3,0,0.5,0
						c1.3-0.1,2.4,0.8,2.5,2.1v0.1v4.9c0.1,1.5-1,2.8-2.5,2.9h-0.1c-1.2,0.1-2.3-0.8-2.4-2.1v-0.1v-0.8h1.7v0.8
						c0,0.4,0.3,0.8,0.7,0.8l0,0c0.7,0,0.9-0.7,0.9-1.5v-1.6c-0.3,0.4-0.7,0.6-1.2,0.5c-1.2,0.1-2.2-0.7-2.4-1.9
						C110,33.9,110,33.8,110,33.7z M111.8,33.7c0,0.4,0.4,0.8,0.8,0.8l0,0c0.6,0,0.9-0.3,0.9-0.5v-2c0-0.4-0.4-0.8-0.8-0.8
						c-0.7,0-1,0.4-1,1.2C111.8,32.4,111.8,33.6,111.8,33.7L111.8,33.7z"/>
					<path id="_Compound_Path_47" class="st0" d="M123,36.9c0,1.6-1.3,2.8-2.8,2.8s-2.8-1.3-2.8-2.8c-0.1-1.1,0.6-2.1,1.6-2.5
						c-0.8-0.4-1.3-1.3-1.3-2.2c0-1.4,1.1-2.5,2.5-2.5s2.5,1.1,2.5,2.5c0,0.9-0.5,1.7-1.3,2.2C122.4,34.8,123.1,35.8,123,36.9z
						 M121.2,36.9c0-0.9-0.2-1.6-1-1.8c-0.8,0.2-1,0.8-1,1.8s0.3,1.5,1.2,1.5C120.9,38.4,121.2,37.6,121.2,36.9z M119.3,32.3
						c-0.2,0.5,0.1,1,0.5,1.2c0.5,0.2,1-0.1,1.2-0.5c0.1-0.2,0.1-0.4,0-0.6c0-0.7-0.3-1.2-0.8-1.2S119.3,31.6,119.3,32.3z"/>
					<path id="_Compound_Path_48" class="st0" d="M130.3,35.8c0,0.1,0,1.2,0,1.4c0.1,1.4-1,2.5-2.3,2.6c-0.2,0-0.3,0-0.5,0
						c-1.3,0.1-2.4-0.8-2.6-2.1v-0.1v-4.9c-0.1-1.5,1-2.8,2.5-2.9h0.1c1.2-0.1,2.3,0.8,2.4,2c0,0.1,0,0.1,0,0.2v0.7h-1.7V32
						c0-0.4-0.3-0.8-0.7-0.8c0,0,0,0-0.1,0c-0.7,0-0.9,0.8-0.9,1.5v1.5c0.3-0.4,0.7-0.6,1.2-0.5c1.2-0.1,2.2,0.7,2.4,1.9
						C130.3,35.7,130.3,35.8,130.3,35.8z M128.5,35.8c0-0.4-0.4-0.8-0.8-0.8c0,0,0,0-0.1,0c-0.6,0-0.9,0.3-0.9,0.5v2
						c0,0.4,0.4,0.8,0.8,0.8c0.7,0,1-0.4,1-1.2C128.5,37.1,128.5,36,128.5,35.8L128.5,35.8z"/>
				</g>
			</g>
			<g id="_Group_11">
				<g>
					<path class="st0" d="M104.8,10.2c-2.2,0-3.9,1.8-3.9,3.9s1.8,3.9,3.9,3.9s3.9-1.8,3.9-3.9S106.9,10.2,104.8,10.2z M102.7,11.5
						c0.3-0.3,0.7-0.3,0.9-0.1c0.2,0.2,0,0.6-0.3,0.8s-0.7,0.3-0.9,0.1C102.3,12.2,102.4,11.8,102.7,11.5z M104.8,16.5
						c-1.1,0-2-0.5-2-1c0-0.6,0.9-1,2-1s2,0.5,2,1C106.7,16,105.8,16.5,104.8,16.5z"/>
				</g>
			</g>
			<g id="_Group_12">
				<g>
					<path class="st0" d="M82.6,15.4c-2.2,0-3.9,1.8-3.9,3.9s1.8,3.9,3.9,3.9c2.2,0,3.9-1.8,3.9-3.9S84.7,15.4,82.6,15.4z
						 M80.5,16.7c0.3-0.3,0.7-0.3,0.9-0.1c0.2,0.2,0,0.6-0.3,0.8s-0.7,0.3-0.9,0.1C80.1,17.3,80.2,17,80.5,16.7z M82.6,21.6
						c-1.1,0-2-0.5-2-1c0-0.6,0.9-1,2-1s2,0.5,2,1C84.6,21.2,83.7,21.6,82.6,21.6z"/>
				</g>
			</g>
			<g id="_Group_13">
				<g>
					<path class="st0" d="M126.2,15.4c-2.2,0-3.9,1.8-3.9,3.9s1.8,3.9,3.9,3.9c2.1,0,3.9-1.8,3.9-3.9S128.3,15.4,126.2,15.4z
						 M124.1,16.7c0.3-0.3,0.7-0.3,0.9-0.1c0.2,0.2,0,0.6-0.3,0.8s-0.7,0.3-0.9,0.1C123.7,17.4,123.8,17,124.1,16.7z M126.2,21.6
						c-1.1,0-2-0.5-2-1c0-0.6,0.9-1,2-1s2,0.5,2,1C128.1,21.2,127.2,21.6,126.2,21.6z"/>
				</g>
			</g>
			<path id="_Path_21" class="st1" d="M116.9,70c0,0-2.8-1.5-4.2-1.6c0,0-11.2-10.6-13.7-12c0,0-6.8,11-9.7,11.9c0,0-0.8,1,2.7,1.3
				c0,0,3.3,0,3.6,0.4c0,0,1.2,0.4,1.1,1.1"/>
			<path id="_Path_22" class="st1" d="M69.3,72.5c-3.9-2.1-8.3-3.3-12.8-3.5c0,0-2.3,0.5-4.2,4.3c0,0,0,0.7,1.2,1.3"/>
			<path id="_Path_23" class="st1" d="M49,90.7c-1.5-0.2-13.2,4.7-13.2,4.7C12.2,110.2,3,108,3,108c0-5,8.9-19.2,8.9-19.2
				c4.7-5.8,1.9-9.6,1.9-9.6C3.4,57.7,4.7,57.5,4.7,57.5c5.8-0.1,27.9,10.1,27.9,10.1c3.4,1.8,6.9,3.3,10.5,4.7l5.1,2
				c1.5,0.8,13.2,0.5,13.2,0.5c23.6-6.8,94.1-6.3,94.1-6.3l7.8,0.6c0,0,30.4,3.7,35.1,11.9c0,0-7.2,3.8-11.5,7.8c0,0,6.1-0.7,7.5-1
				l5.3-0.4c0,0,0.4,0.4-7.7,6.3c-4,1.9-8.2,3.5-12.5,4.8l-7.3,1.6c-6,1.5-11.7,4.4-16.8,5.4c0,0-14.7,3-39,1.3s-16.7-2.7-35.7-7.4
				S61,92.6,49,90.7z"/>
			<path id="_Path_24" class="st1" d="M116.3,100.4c0,0-3.6,15.2-10.3,17.4c-2.2-2.5-3.9-5.3-5.1-8.4c-0.8-2.1-1.4-4.2-1.7-6.4
				c0,0,0.3-2.4,2.3-2.6c0,0,3.2,1.1,4.7,0"/>
			<path id="_Path_25" class="st1" d="M76.5,97.1c-2.6,3.9-5.9,7.3-9.8,10.1c0,0-2.8,3-4.1,2.7c-0.8-0.2-0.3-2.2-0.1-4.9
				c-1.1-3.3-3-6.2-5.4-8.7c0,0-1.8-1.5,0-2.3c0,0,0.4,0.1,5-1"/>
			<g id="_Group_14">
				<polygon id="_Path_26" class="st2" points="8,64.6 29.4,72.8 7.4,66.5 				"/>
			</g>
			<g id="_Group_15">
				<polygon id="_Path_27" class="st2" points="12.3,74.7 23.8,77 12.1,76.7 				"/>
			</g>
			<g id="_Group_16">
				<polygon id="_Path_28" class="st2" points="13.4,85.2 23.8,84 13.9,87.2 				"/>
			</g>
			<g id="_Group_17">
				<polygon id="_Path_29" class="st2" points="10.2,90.9 27.4,88.1 10.7,92.8 				"/>
			</g>
			<g id="_Group_18">
				<polygon id="_Path_30" class="st2" points="6.3,97.2 28.4,90.8 6.9,99.1 				"/>
			</g>
			<g id="_Group_19">
				<polygon id="_Path_31" class="st2" points="3.2,102.7 28.1,95 3.9,104.6 				"/>
			</g>
			<path id="_Path_32" class="st2" d="M185.9,78.9c0-0.4-0.3-0.7-0.6-0.8c-0.1,0-0.5-0.2-0.7-0.2c-0.3-0.1-0.7-0.1-1,0
				c-0.4,0.1-0.8,0.2-1.1,0.4c-0.4,0.2-0.8,0.6-1,1s-0.1,1.2,0.3,1.4c0.9,0.4,1.4,1.1,2.4,0.8c0.3,0,0.7-0.1,0.9-0.4
				s0.4-0.6,0.5-0.9c0.1-0.2,0.2-0.4,0.2-0.6"/>
			<path id="_Path_33" class="st3" d="M43.2,91.9c0,0,4.6-6.3,44.9,9.8c0,0-0.8-0.1,11.1,3.3"/>
			<path id="_Path_34" class="st4" d="M114.3,106.6c5.6,0.2,16.6,0.6,24.3,0.5c0,0,1.6,0,4.2-0.1"/>
			<g id="_Group_20">
				<path id="_Path_35" class="st2" d="M158.3,96.2c-1.4-0.1-2.8,0-4.2,0.3c-0.4,0.1-0.7,0.2-1,0.2s-0.7,0.2-1,0.3
					c-0.3,0.1-0.7,0.2-1,0.4c-0.3,0.1-0.6,0.3-0.9,0.5c-0.3,0.2-0.6,0.3-0.9,0.5l-0.9,0.6c-0.3,0.2-0.5,0.4-0.8,0.7
					c-0.3,0.2-0.5,0.5-0.7,0.7c-0.2,0.3-0.5,0.5-0.7,0.8l-0.6,0.9c-0.4,0.6-0.7,1.2-1,1.8v-0.1c-0.2,0.8-0.5,1.7-0.8,2.5
					s-0.7,1.6-1.1,2.3c-0.4,0.8-1,1.5-1.6,2.1c-0.3,0.3-0.6,0.6-1,0.9c-0.2,0.1-0.4,0.3-0.6,0.4l-0.6,0.3l-0.6-1.5
					c2.8-0.9,5.6-1.9,8.4-2.9c1.4-0.5,2.8-1,4.1-1.6c0.7-0.3,1.4-0.5,2-0.8s1.3-0.6,1.9-1l-0.1,0.1c1.1-1.1,2.2-2.2,3.3-3.2
					c0.6-0.5,1.1-1,1.8-1.5c0.6-0.5,1.2-1,1.9-1.4h0.1l0,0v0.1l0,0c-1.1,1.1-2,2.3-2.9,3.5l-2.8,3.6l-0.1,0.1l0,0l-1,0.7l-1,0.6
					c-0.7,0.4-1.4,0.7-2.1,1s-1.4,0.6-2.1,0.9s-1.4,0.5-2.1,0.8c-1.4,0.5-2.9,0.9-4.3,1.3s-2.9,0.8-4.4,1.2c-0.4,0.1-0.9-0.2-1-0.6
					s0.1-0.7,0.4-0.9l0,0l0.5-0.2c0.2-0.1,0.3-0.2,0.5-0.3c0.3-0.2,0.6-0.4,0.9-0.7c0.5-0.5,1-1.2,1.4-1.8c0.4-0.7,0.8-1.4,1.1-2.1
					s0.6-1.5,0.8-2.2v-0.1l0,0c0.3-0.7,0.7-1.3,1.1-1.9l0.7-0.9c0.2-0.3,0.5-0.6,0.8-0.8c0.2-0.3,0.5-0.5,0.8-0.8
					c0.3-0.2,0.6-0.5,0.9-0.7l0.9-0.6c0.3-0.2,0.7-0.3,1-0.5s0.7-0.3,1-0.4s0.7-0.2,1-0.3c0.3-0.1,0.7-0.2,1.1-0.3
					c0.4-0.1,0.7-0.2,1.1-0.2c1.4-0.2,2.9-0.2,4.3-0.1c0.1,0,0.1,0,0.1,0.1C158.4,96.2,158.4,96.2,158.3,96.2L158.3,96.2z"/>
			</g>
			<g id="_Group_21">
				<path id="_Path_36" class="st2" d="M116.9,70c-0.7-0.3-1.4-0.5-2.2-0.7c-0.4-0.1-0.7-0.2-1.1-0.3c-0.3-0.1-0.7-0.1-1-0.1h-0.1
					l-0.2-0.1c-2.3-1.9-4.7-3.9-7-5.8c-1.2-1-2.3-2-3.5-2.9c-0.6-0.5-1.2-1-1.7-1.4c-0.3-0.2-0.6-0.5-0.9-0.7s-0.6-0.4-0.8-0.6
					l1.3-0.3c-0.7,1.1-1.4,2.2-2.1,3.3s-1.5,2.1-2.3,3.2c-0.8,1-1.6,2-2.5,3c-0.5,0.5-0.9,1-1.5,1.4c-0.3,0.2-0.6,0.4-0.8,0.6
					c-0.3,0.2-0.7,0.4-1.1,0.5l0.3-0.2c0.1-0.1,0-0.1,0.1-0.2v-0.1l0,0l0,0c0.1,0.1,0.2,0.1,0.2,0.1c0.1,0,0.2,0.1,0.3,0.1
					c0.5,0.1,1,0.3,1.6,0.3l0,0c0.6,0,1.2,0.1,1.9,0.2c0.3,0,0.6,0.1,0.9,0.2c0.2,0,0.3,0.1,0.5,0.1l0.2,0.1c0.1,0,0.2,0.1,0.3,0.2
					l-0.1-0.1c0.3,0.1,0.5,0.3,0.7,0.5s0.3,0.5,0.3,0.8c0-0.3-0.2-0.5-0.4-0.6c-0.2-0.1-0.5-0.2-0.7-0.3l-0.1-0.1c0,0,0,0-0.1,0
					h-0.2c-0.1,0-0.3,0-0.4,0h-0.9c-0.6,0-1.2,0-1.8,0.1l0,0c-0.6,0-1.2-0.1-1.8-0.2c-0.2,0-0.3-0.1-0.5-0.1s-0.4-0.1-0.5-0.2
					c-0.2-0.1-0.4-0.3-0.5-0.6c-0.1-0.2-0.1-0.4-0.1-0.6s0.1-0.4,0.2-0.5l0.1-0.1l0.2-0.1c0.5-0.3,0.9-0.6,1.3-1s0.8-0.9,1.2-1.4
					c0.8-1,1.6-2,2.3-3s1.4-2.1,2.2-3.2s1.4-2.2,2.1-3.2l0.5-0.8l0.8,0.5c0.4,0.2,0.7,0.5,1,0.7s0.6,0.5,0.9,0.7
					c0.6,0.5,1.2,1,1.8,1.5c1.2,1,2.3,2.1,3.4,3.1c2.2,2.1,4.3,4.3,6.4,6.5l-0.3-0.1c0.4,0.1,0.8,0.2,1.2,0.3
					c0.4,0.1,0.7,0.3,1.1,0.5C115.6,69.2,116.3,69.6,116.9,70z"/>
			</g>
			<g id="_Group_22">
				<path id="_Path_37" class="st5" d="M111.5,70.1L99.6,59.4l12.5,9.9c0.2,0.2,0.3,0.5,0.1,0.7S111.7,70.2,111.5,70.1L111.5,70.1z"
					/>
			</g>
			<g id="_Group_23">
				<path id="_Path_38" class="st5" d="M106.7,70l-7.9-7.7l8.5,6.9c0.2,0.2,0.3,0.5,0.1,0.7C107.2,70.2,106.9,70.2,106.7,70
					L106.7,70z"/>
			</g>
			<g id="_Group_24">
				<path id="_Path_39" class="st5" d="M102.4,69.6L97.5,65l5.5,3.9c0.2,0.2,0.3,0.5,0.1,0.7C102.9,69.8,102.6,69.9,102.4,69.6
					L102.4,69.6z"/>
			</g>
			<g id="_Group_25">
				<path id="_Path_40" class="st5" d="M98.7,70.2l-3.9-3.7l4.5,2.9c0.2,0.2,0.3,0.5,0.2,0.7C99.3,70.4,99,70.4,98.7,70.2L98.7,70.2
					z"/>
			</g>
			<g id="_Group_26">
				<path id="_Path_41" class="st2" d="M69.3,72.5c-1.1-0.3-2.2-0.6-3.2-0.9c-0.5-0.1-1.1-0.2-1.6-0.4s-1.1-0.2-1.6-0.3
					s-1.1-0.2-1.6-0.3s-1.1-0.2-1.6-0.2s-1.1-0.1-1.6-0.2S57,70,56.4,70h0.2l-0.2,0.1c-0.1,0-0.2,0.1-0.3,0.1
					c-0.2,0.1-0.4,0.2-0.6,0.3c-0.4,0.3-0.7,0.5-1.1,0.8c-0.4,0.3-0.7,0.7-1,1.1s-0.6,0.8-0.9,1.2v-0.2l0,0v0.1c0,0.1,0,0.1,0,0.2
					s0.1,0.2,0.2,0.4c0.2,0.3,0.3,0.5,0.5,0.7c-0.3-0.1-0.6-0.2-0.9-0.4c-0.2-0.1-0.3-0.2-0.4-0.3c-0.1-0.1-0.1-0.2-0.2-0.2
					c0,0-0.1-0.1-0.1-0.2s-0.1-0.1-0.1-0.2v-0.1l0.1-0.2c0.2-0.5,0.4-1,0.6-1.5c0.3-0.5,0.5-1,0.9-1.4c0.4-0.5,0.8-0.9,1.3-1.3
					c0.2-0.2,0.5-0.4,0.7-0.5c0.1-0.1,0.3-0.2,0.4-0.2c0.2-0.1,0.4-0.1,0.5-0.2h0.1h0.2c1.1,0,2.3,0.1,3.4,0.3
					c1.1,0.2,2.3,0.5,3.3,0.8c1.1,0.4,2.2,0.8,3.2,1.3C67.5,71.1,68.4,71.7,69.3,72.5z"/>
			</g>
			<path id="_Path_42" class="st2" d="M152.8,75.3l-0.1-0.2c0-0.3-0.2-0.5-0.4-0.6c0,0-0.4-0.1-0.5-0.1c-0.2-0.1-0.5-0.1-0.7,0
				c-0.3,0.1-0.5,0.2-0.8,0.3c-0.4,0.3-0.6,0.6-0.8,1c-0.1,0.2-0.2,0.6,0.1,0.8c0.6,0.4,1.3,0.6,2,0.5c0.2,0,0.5-0.1,0.6-0.3
				c0.2-0.2,0.3-0.4,0.3-0.7c0.1-0.1,0.1-0.3,0.1-0.4C152.7,75.7,152.8,75.4,152.8,75.3z"/>
			<path id="_Path_43" class="st2" d="M138.4,75.4l-0.1-0.1c0-0.2-0.1-0.3-0.3-0.3l-0.3-0.1c-0.1,0-0.3,0-0.4,0
				c-0.2,0-0.3,0.1-0.5,0.2s-0.4,0.3-0.5,0.6c-0.1,0.2-0.1,0.4,0.1,0.5c0.3,0.2,0.8,0.4,1.2,0.3c0.1,0,0.3-0.1,0.4-0.2
				c0.1-0.1,0.2-0.2,0.2-0.4c0-0.1,0.1-0.2,0.1-0.2C138.4,75.7,138.5,75.5,138.4,75.4z"/>
			<path id="_Path_44" class="st2" d="M64.2,72.1L64.2,72.1c-0.1-0.3-0.2-0.4-0.4-0.5l-0.3-0.1c-0.1,0-0.3,0-0.4,0
				c-0.2,0-0.3,0.1-0.5,0.2s-0.4,0.4-0.5,0.6s-0.1,0.4,0,0.5c0.4,0.2,0.8,0.4,1.2,0.3c0.1,0,0.3-0.1,0.4-0.2
				c0.1-0.1,0.2-0.3,0.2-0.4s0.1-0.2,0.1-0.2C64.1,72.3,64.2,72.2,64.2,72.1z"/>
			<path id="_Path_45" class="st5" d="M56.3,73.1L56.3,73.1c0-0.2-0.1-0.3-0.2-0.3H56c-0.1,0-0.2,0-0.3,0s-0.2,0.1-0.3,0.1
				c-0.1,0.1-0.3,0.2-0.3,0.4c-0.1,0.1-0.1,0.2,0,0.3s0.5,0.3,0.8,0.2c0.1,0,0.2,0,0.2-0.1c0.1-0.1,0.1-0.2,0.1-0.3
				C56.2,73.4,56.2,73.3,56.3,73.1C56.3,73.3,56.3,73.2,56.3,73.1z"/>
			<path id="_Path_46" class="st2" d="M59.3,71.1L59.3,71.1c0-0.1,0-0.2-0.1-0.2H59c-0.1,0-0.1,0-0.2,0c-0.1,0-0.2,0-0.2,0.1
				c-0.1,0.1-0.2,0.2-0.2,0.3c0,0.1-0.1,0.2,0,0.2c0.2,0.1,0.4,0.2,0.6,0.2c0.1,0,0.1,0,0.2-0.1c0-0.1,0.1-0.1,0.1-0.2v-0.1
				C59.2,71.3,59.3,71.2,59.3,71.1z"/>
			<path id="_Path_47" class="st6" d="M155.3,105.4c5.1-1,10.8-3.9,16.8-5.4l7.3-1.6c4.3-1.2,8.5-2.8,12.5-4.8
				c8.1-5.8,7.7-6.3,7.7-6.3l-5.3,0.4c-1.4,0.4-7.5,1-7.5,1c4.2-4,11.5-7.8,11.5-7.8c-4.6-8.2-35.1-11.9-35.1-11.9l-7.8-0.6
				c0,0-70.5-0.4-94.1,6.3c0,0-11.7,0.3-13.2-0.5l-5.1-2c-3.6-1.4-7.1-2.9-10.5-4.7c0,0-22.2-10.2-27.9-10.1c0,0-1.3,0.1,9.2,21.7
				c0,0,2.8,3.8-1.9,9.6c0,0-8.9,14.2-8.9,19.2c0,0,9.2,2.2,32.8-12.6c0,0,11.7-5,13.2-4.7"/>
			<path id="_Path_48" class="st2" d="M143.1,81c0,0,0-0.1-0.1-0.1c0-0.2-0.1-0.3-0.3-0.4l-0.3-0.1c-0.1,0-0.3,0-0.4,0
				c-0.2,0-0.3,0.1-0.5,0.2s-0.4,0.4-0.5,0.6s-0.1,0.4,0,0.5c0.3,0.2,0.8,0.4,1.2,0.3c0.1,0,0.3-0.1,0.4-0.2
				c0.1-0.1,0.2-0.2,0.2-0.4c0-0.1,0.1-0.2,0.1-0.2C143,81.2,143.1,81,143.1,81z"/>
			<path id="_Path_49" class="st2" d="M109.1,76.8C109.1,76.8,109.1,76.7,109.1,76.8c-0.1-0.3-0.2-0.4-0.4-0.4l-0.3-0.1
				c-0.1,0-0.3,0-0.4,0c-0.4,0.1-0.8,0.4-1,0.8c-0.1,0.2-0.1,0.4,0,0.5c0.3,0.2,0.8,0.4,1.2,0.3c0.1,0,0.3-0.1,0.4-0.2
				s0.2-0.2,0.2-0.4c0.1-0.1,0.1-0.1,0.2-0.2C109,77,109.1,76.8,109.1,76.8z"/>
			<path id="_Path_50" class="st2" d="M74.2,78.8l-0.1-0.2c0-0.3-0.2-0.5-0.4-0.6c0,0-0.4-0.1-0.5-0.1c-0.2-0.1-0.5-0.1-0.7,0
				c-0.3,0.1-0.5,0.2-0.8,0.3c-0.4,0.2-0.7,0.6-0.8,1c-0.2,0.2-0.2,0.6,0.1,0.8c0.6,0.4,1.3,0.6,2,0.5c0.2,0,0.5-0.1,0.6-0.3
				c0.2-0.2,0.3-0.4,0.3-0.7c0.1-0.1,0.1-0.3,0.2-0.4C74.1,79.2,74.3,78.8,74.2,78.8z"/>
			<path id="_Path_51" class="st2" d="M77.7,87.7l-0.1-0.2c0-0.3-0.2-0.5-0.4-0.6c0,0-0.4-0.1-0.5-0.1c-0.2-0.1-0.5-0.1-0.7,0
				c-0.3,0.1-0.5,0.2-0.8,0.3c-0.4,0.2-0.7,0.6-0.8,1c-0.2,0.2-0.2,0.6,0.1,0.8c0.6,0.4,1.3,0.6,2,0.5c0.2,0,0.5-0.1,0.6-0.3
				c0.2-0.2,0.3-0.4,0.3-0.7c0.1-0.1,0.1-0.3,0.2-0.4C77.6,88.1,77.8,87.8,77.7,87.7z"/>
			<path id="_Path_52" class="st2" d="M85,81L85,81c-0.1-0.3-0.2-0.4-0.4-0.5l-0.3-0.1c-0.1,0-0.3,0-0.4,0c-0.2,0-0.3,0.1-0.5,0.2
				S83,81,82.9,81.2s-0.1,0.4,0,0.5c0.3,0.2,0.8,0.4,1.2,0.3c0.1,0,0.3-0.1,0.4-0.2s0.2-0.2,0.2-0.4c0-0.1,0.1-0.2,0.1-0.2
				C84.9,81.2,85,81,85,81z"/>
			<path id="_Path_53" class="st2" d="M98.7,74.7L98.7,74.7c0-0.2-0.1-0.3-0.2-0.3l-0.2-0.1c-0.1,0-0.2,0-0.3,0
				c-0.1,0-0.2,0.1-0.3,0.1c-0.2,0.1-0.3,0.2-0.4,0.4c-0.1,0.1-0.1,0.3,0,0.3c0.2,0.2,0.6,0.3,0.9,0.2c0.1,0,0.2,0,0.3-0.1
				c0.1-0.1,0.1-0.2,0.1-0.3C98.6,74.8,98.7,74.8,98.7,74.7C98.6,74.9,98.7,74.8,98.7,74.7z"/>
			<path id="_Path_54" class="st2" d="M120.2,80.2L120.2,80.2c-0.1-0.2-0.1-0.3-0.2-0.3l-0.2-0.1c-0.1,0-0.2,0-0.3,0
				c-0.1,0-0.2,0.1-0.3,0.1c-0.2,0.1-0.3,0.2-0.4,0.4c-0.1,0.1-0.1,0.3,0,0.3c0.2,0.2,0.6,0.3,0.9,0.2c0.1,0,0.2,0,0.3-0.1
				c0.1-0.1,0.1-0.2,0.1-0.3C120.1,80.3,120.2,80.3,120.2,80.2C120.1,80.4,120.2,80.2,120.2,80.2z"/>
			<path id="_Path_55" class="st2" d="M150.6,81.8L150.6,81.8c0-0.2-0.1-0.3-0.2-0.3l-0.2-0.1c-0.1,0-0.2,0-0.3,0s-0.2,0.1-0.3,0.1
				c-0.2,0.1-0.3,0.3-0.4,0.4c-0.1,0.1-0.1,0.3,0,0.3c0.2,0.2,0.6,0.3,0.9,0.2c0.1,0,0.2,0,0.3-0.1s0.1-0.2,0.1-0.3
				C150.5,81.9,150.6,81.9,150.6,81.8C150.5,82,150.6,81.8,150.6,81.8z"/>
			<path id="_Path_56" class="st2" d="M191,85.9c0,0-4.2,4.2-5.6,3.4c0,0,7.4,4,15.4-2.8L191,85.9z"/>
			<g id="_Group_27">
				<path id="_Path_57" class="st5" d="M190.5,82.2c0,0-1.1,0.6-2.8,1.6c-0.8,0.5-1.8,1.1-2.8,1.7c-1,0.7-2,1.4-2.9,2.3
					c-0.4,0.4-0.7,0.8-0.9,1.3c0,0.1,0,0.1,0,0.2s0.1,0.2,0.1,0.2c0.1,0.1,0.3,0.2,0.5,0.2c0.5,0.1,1,0,1.5-0.2
					c0.2-0.1,0.5-0.1,0.7-0.2s0.5-0.2,0.7-0.3c0.9-0.3,1.6-0.7,2.1-1s0.8-0.4,0.8-0.4l0.1,0.1c0,0-0.2,0.2-0.7,0.6
					c-0.3,0.2-0.5,0.4-0.8,0.6c-0.4,0.3-0.7,0.5-1.1,0.8c-0.5,0.3-1,0.5-1.5,0.7c-0.6,0.3-1.3,0.3-2,0.2c-0.9-0.1-1.5-1-1.4-1.9l0,0
					c0.3-0.7,0.7-1.3,1.3-1.7c1-0.8,2.1-1.5,3.2-2.1c1.1-0.6,2.1-1.1,2.9-1.6C189.2,82.6,190.4,82.1,190.5,82.2L190.5,82.2z"/>
			</g>
			<g id="_Group_28">
				<path id="_Path_58" class="st2" d="M166.4,74.5c-1.5,1.8-2.7,3.9-3.7,6c-1,2-1.6,4.3-1.8,6.5c-0.1,1.1,0.1,2.2,0.3,3.3
					c0.3,1,0.8,2,1.4,2.9c0.6,0.9,1.4,1.7,2.2,2.4c0.8,0.8,1.7,1.5,2.7,2.1l0.2,0.2l0.1,0.1c0.1,0.1,0.1,0.3,0.2,0.4
					c0.1,0.2,0.2,0.3,0.3,0.4c0.2,0.3,0.5,0.5,0.7,0.7c0.1,0.1,0.3,0.2,0.4,0.3c0.2,0.1,0.3,0.2,0.5,0.2c0.2,0.1,0.3,0.1,0.5,0.2
					c0.2,0,0.4,0.1,0.6,0.1v0.2c-0.2,0.1-0.4,0.1-0.6,0.2c-0.2,0-0.4,0.1-0.6,0.1c-0.2,0-0.4,0-0.7-0.1c-0.7-0.2-1.3-0.5-1.8-0.9
					c-0.2-0.1-0.3-0.3-0.5-0.4c-0.2-0.2-0.3-0.3-0.5-0.5l0.3,0.3c-0.6-0.3-1.1-0.6-1.6-0.9s-1.1-0.7-1.6-1.1c-1-0.8-1.9-1.8-2.5-2.9
					c-1.3-2.2-1.8-4.8-1.5-7.4c0.4-2.4,1.2-4.8,2.5-6.9c1.2-2.1,2.7-4,4.4-5.7L166.4,74.5z"/>
			</g>
			<g id="_Group_29">
				<path id="_Path_59" class="st2" d="M168.9,79.7c-0.2,0.6-0.4,1.2-0.5,1.8c-0.1,0.6-0.2,1.2-0.3,1.9c-0.1,0.6-0.1,1.3-0.1,1.9
					c0,0.3,0,0.6,0,0.9l0.1,0.9l0.2,0.9c0.1,0.3,0.1,0.6,0.2,0.9c0.1,0.3,0.2,0.6,0.3,0.9s0.2,0.5,0.4,0.8l0.5,0.8
					c0.2,0.2,0.4,0.5,0.6,0.7l0.3,0.3l0.3,0.3l0.7,0.6l-0.2-0.1c0.9,0.3,1.8,0.6,2.7,0.8c0.4,0.1,0.9,0.2,1.3,0.2c0.2,0,0.4,0,0.6,0
					c0.1,0,0.1,0,0.2,0c0.1,0,0,0,0,0l-0.4,0.7V94l-0.1-1c0-0.6-0.1-1.3-0.2-1.9c0-0.3-0.1-0.6-0.2-0.9c-0.1-0.3-0.2-0.6-0.3-0.8
					c-0.1-0.1-0.1-0.2-0.2-0.4c-0.1-0.1-0.1-0.2-0.2-0.3c-0.1-0.1-0.2-0.2-0.2-0.3c-0.1-0.1-0.2-0.2-0.3-0.2l-0.4-0.3v-0.2
					c-0.1-0.5-0.1-0.9-0.1-1.4s0-0.9,0-1.4c0-0.9,0.3-1.8,0.7-2.7l0.2,0.1c-0.1,0.9,0,1.7,0.1,2.6c0.1,0.4,0.2,0.8,0.2,1.3
					s0.2,0.8,0.3,1.2l-0.4-0.5l0.6,0.3c0.2,0.1,0.3,0.3,0.5,0.4s0.3,0.3,0.4,0.5c0.1,0.2,0.2,0.3,0.3,0.5c0.2,0.3,0.4,0.7,0.5,1.1
					s0.2,0.7,0.3,1.1c0.2,0.7,0.3,1.5,0.3,2.2c0,0.4,0,0.7,0,1.1s0,0.7-0.1,1.1l-0.1,0.6L177,96c-0.2,0.1-0.4,0.2-0.6,0.2
					c-0.2,0-0.3,0-0.5,0c-0.3,0-0.6,0-0.9-0.1c-0.5-0.1-1-0.2-1.5-0.3c-1-0.3-1.9-0.6-2.8-1h-0.1h-0.1l-0.7-0.7l-0.4-0.4l-0.3-0.4
					c-0.2-0.3-0.4-0.6-0.6-0.8l-0.5-0.9c-0.2-0.3-0.3-0.7-0.4-1c-0.1-0.3-0.2-0.7-0.3-1s-0.2-0.7-0.2-1l-0.1-1v-1c0-0.3,0-0.7,0.1-1
					c0.1-0.7,0.2-1.3,0.3-1.9c0.3-1.3,0.7-2.5,1.2-3.7L168.9,79.7z"/>
			</g>
			<g id="_Group_30">
				<path id="_Path_60" class="st5" d="M186.1,82.2c-0.3,0.3-0.7,0.5-1.1,0.6c-0.4,0.1-0.8,0.2-1.2,0.2c-0.5,0-1-0.1-1.5-0.2
					c-0.2,0-0.5-0.1-0.7-0.2s-0.5-0.2-0.7-0.3c-0.2-0.1-0.4-0.2-0.6-0.4l-0.4-0.5l-0.3-0.4c-0.1-0.1-0.1-0.2-0.1-0.4l-0.1-0.3h0.1
					l0.2,0.3c0.1,0.1,0.1,0.2,0.2,0.3l0.3,0.3l0.4,0.3c0.2,0.1,0.3,0.2,0.5,0.2c0.2,0.1,0.4,0.1,0.6,0.2c0.2,0,0.4,0.1,0.7,0.1
					c0.4,0,0.9,0,1.3-0.1c0.4,0,0.8,0,1.2,0C185.3,82,185.7,82.1,186.1,82.2L186.1,82.2z"/>
			</g>
			<g id="_Group_31">
				<path id="_Path_61" class="st2" d="M116.3,100.4c-0.2,1.7-0.6,3.4-1.1,5.1c-0.2,0.8-0.5,1.7-0.8,2.5s-0.6,1.7-1,2.5
					c-0.7,1.7-1.6,3.2-2.7,4.7c-0.3,0.4-0.6,0.7-0.9,1.1s-0.6,0.7-1,1s-0.8,0.6-1.2,0.8l-0.7,0.3l-0.7,0.3l-0.6,0.2l-0.4-0.5
					c-0.3-0.3-0.5-0.5-0.8-0.8c-0.2-0.3-0.5-0.6-0.7-0.8c-0.4-0.6-0.8-1.2-1.2-1.8c-0.8-1.2-1.4-2.5-2-3.8c-0.3-0.7-0.5-1.3-0.8-2
					s-0.4-1.3-0.6-2c-0.4-1.4-0.6-2.8-0.7-4.2v-0.2c0-0.2,0.1-0.4,0.1-0.5c0.1-0.2,0.1-0.3,0.2-0.5c0.2-0.3,0.3-0.6,0.6-0.9
					c0.2-0.3,0.5-0.5,0.9-0.7c0.3-0.2,0.7-0.3,1.1-0.3h0.1h0.1c0.7,0.3,1.5,0.5,2.2,0.6c0.4,0.1,0.8,0.1,1.2,0.1
					c0.4,0,0.8-0.1,1.1-0.3c-0.7,0.5-1.5,0.7-2.3,0.7s-1.7-0.1-2.5-0.3h0.2c-0.5,0.1-0.9,0.4-1.2,0.8c-0.1,0.2-0.3,0.4-0.3,0.7
					c0,0.1-0.1,0.2-0.1,0.4c0,0.1,0,0.2,0,0.4v-0.2c0.2,1.3,0.6,2.6,1,3.9c0.2,0.6,0.4,1.3,0.7,1.9s0.5,1.2,0.8,1.8
					c0.6,1.2,1.2,2.4,1.9,3.5c0.4,0.6,0.8,1.1,1.1,1.6c0.2,0.3,0.4,0.5,0.6,0.8s0.4,0.5,0.6,0.7l-1-0.2l0.5-0.2l0.5-0.2
					c0.3-0.2,0.6-0.4,0.9-0.7c0.3-0.2,0.6-0.5,0.9-0.8s0.6-0.6,0.8-0.9c0.5-0.6,1-1.3,1.5-2s0.9-1.4,1.3-2.2
					C113.7,106.8,115.1,103.7,116.3,100.4z"/>
			</g>
			<g id="_Group_32">
				<path id="_Path_62" class="st5" d="M103.8,115.2c0,0,0.5-0.4,1.2-1.1c0.9-0.8,1.8-1.7,2.6-2.6c0.8-0.9,1.6-1.8,2.2-2.9
					c0.1-0.2,0.2-0.4,0.3-0.6c0.1-0.2,0.2-0.3,0.2-0.5l0.2-0.4l-0.1,0.4c0,0.2-0.1,0.3-0.2,0.5s-0.2,0.4-0.3,0.6
					c-0.6,1.1-1.2,2.2-2,3.1c-1.1,1.4-2.3,2.8-3.5,4.1c-0.2,0.2-0.5,0.2-0.7,0S103.5,115.4,103.8,115.2L103.8,115.2z"/>
			</g>
			<g id="_Group_33">
				<path id="_Path_63" class="st5" d="M101.1,108.9l0.3,0.1c0.3,0,0.6,0,0.8,0c0.9-0.1,1.8-0.3,2.6-0.8c0.2-0.1,0.4-0.2,0.6-0.4
					c0.2-0.1,0.4-0.3,0.6-0.4c0.4-0.3,0.7-0.6,1-0.9s0.5-0.5,0.6-0.7l0.2-0.3l-0.2,0.3c-0.1,0.2-0.3,0.5-0.5,0.8
					c-0.3,0.4-0.6,0.7-0.9,1c-0.2,0.2-0.4,0.4-0.6,0.5c-0.2,0.2-0.4,0.3-0.6,0.5c-0.4,0.3-0.9,0.6-1.4,0.8c-0.4,0.2-0.9,0.3-1.3,0.4
					c-0.3,0.1-0.7,0.1-1,0.1c-0.1,0-0.3,0-0.4,0L101.1,108.9z"/>
			</g>
			<g id="_Group_34">
				<path id="_Path_64" class="st2" d="M76.5,97.1c-0.5,1.1-1.1,2.1-1.8,3.1c-0.7,1-1.4,2-2.2,2.9c-0.4,0.5-0.8,0.9-1.2,1.3
					s-0.8,0.9-1.3,1.3s-0.9,0.8-1.4,1.2s-1,0.7-1.4,1.1l0.2-0.1c-0.6,0.7-1.2,1.3-1.9,1.8c-0.4,0.3-0.8,0.6-1.2,0.8
					c-0.2,0.1-0.5,0.3-0.8,0.3c-0.4,0.1-0.8,0.1-1.2,0c-0.2-0.1-0.3-0.1-0.5-0.2c-0.1-0.1-0.2-0.2-0.3-0.4c-0.1-0.2-0.2-0.4-0.2-0.6
					c-0.1-0.3-0.1-0.6-0.1-0.8c0-0.5,0-0.9,0.1-1.3c0.1-0.8,0.2-1.7,0.2-2.5v0.4c-0.2-0.5-0.3-1-0.5-1.5s-0.4-1-0.7-1.5
					c-0.4-1-1-1.9-1.5-2.8c-0.3-0.4-0.6-0.9-0.9-1.3s-0.7-0.8-1-1.2l-0.3-0.3c-0.1-0.1-0.2-0.2-0.3-0.4c-0.2-0.3-0.4-0.6-0.5-1
					s0-0.9,0.2-1.2c0.2-0.3,0.5-0.5,0.9-0.6h0.4c-0.1,0-0.1,0-0.1,0h0.2h0.3l0.6-0.1l1.3-0.1l2.6-0.4c-0.8,0.3-1.6,0.6-2.4,0.8
					c-0.4,0.1-0.8,0.2-1.2,0.4L58,94.4l-0.3,0.1h-0.2h-0.2c0,0,0,0-0.2,0h0.4c-0.2,0.1-0.3,0.2-0.4,0.4c0,0.1,0,0.2,0,0.3
					c0.1,0.2,0.2,0.3,0.3,0.4s0.2,0.1,0.2,0.2l0.3,0.3c0.4,0.4,0.8,0.8,1.2,1.2s0.8,0.9,1.1,1.3c0.7,0.9,1.3,1.9,1.8,2.9
					c0.3,0.5,0.5,1,0.8,1.6l0.3,0.8c0.1,0.3,0.2,0.5,0.3,0.8v0.2v0.2c0,0.9-0.1,1.7-0.2,2.5c0,0.4-0.1,0.8-0.1,1.2
					c0,0.1,0,0.3,0,0.4l0,0l-0.1-0.1l-0.1-0.1h-0.1l0,0c-0.2,0,0,0,0,0c0.1-0.1,0.3-0.1,0.4-0.2c0.3-0.2,0.6-0.4,0.9-0.6
					c0.6-0.5,1.2-1,1.8-1.6l0.1-0.1l0.1-0.1c0.5-0.3,1-0.6,1.4-1s0.9-0.7,1.4-1c0.9-0.7,1.8-1.5,2.6-2.3
					C73.3,100.5,74.9,98.8,76.5,97.1z"/>
			</g>
			<g id="_Group_35">
				<polygon id="_Path_65" class="st2" points="58,96.6 62.1,96.1 58.6,98.4 				"/>
			</g>
			<g id="_Group_36">
				<polygon id="_Path_66" class="st0" points="60.8,100.5 67.6,98.3 61.6,102.3 				"/>
			</g>
			<g id="_Group_37">
				<polygon id="_Path_67" class="st2" points="61.7,104.1 70.6,99.9 62.8,105.8 				"/>
			</g>
			<g id="_Group_38">
				<path id="_Path_68" class="st2" d="M44.2,91c0,0,1.2-0.6,3-1.3c2.2-0.9,4.5-1.6,6.8-2.2c0.6-0.2,1.3-0.3,1.9-0.4
					s1.3-0.2,1.9-0.3s1.2-0.2,1.8-0.2l1.6-0.1c0.5,0,0.9,0,1.3,0c0.3,0,0.7,0,1,0.1l0.9,0.1h-0.9c-0.3,0-0.7,0-1,0
					c-0.4,0-0.8,0-1.3,0.1L59.7,87c-0.5,0.1-1.1,0.2-1.7,0.4s-1.2,0.3-1.8,0.5s-1.2,0.4-1.8,0.6c-2.2,0.8-4.3,1.8-6.4,2.8
					c-1.7,0.9-2.8,1.5-2.8,1.5L44.2,91z"/>
			</g>
			<g id="_Group_39">
				<path id="_Path_69" class="st5" d="M66.4,90.7l11.8,2c3.5,0.6,7.7,1.3,12.1,2s9.1,1.4,13.9,2.1s9.4,1.3,13.9,1.7
					c2.2,0.2,4.4,0.4,6.4,0.6s4,0.2,5.8,0.3s3.4,0,4.9,0s2.7-0.2,3.7-0.3c0.8-0.1,1.6-0.3,2.4-0.5l0.8-0.2l-0.8,0.3
					c-0.8,0.3-1.6,0.5-2.4,0.6c-1,0.2-2.3,0.4-3.8,0.5s-3.1,0.2-4.9,0.2s-3.7,0-5.8-0.1s-4.2-0.2-6.5-0.4c-4.5-0.4-9.2-1-14-1.6
					s-9.4-1.4-13.9-2.2s-8.5-1.6-12-2.3s-6.4-1.4-8.5-1.8L66.4,90.7z"/>
			</g>
			<g id="_Group_40">
				<path id="_Path_70" class="st2" d="M144,103.1c0,0,0.8-0.5,2-1.2c1.5-0.8,3.1-1.5,4.7-2c0.4-0.1,0.9-0.2,1.3-0.4l1.3-0.2
					c0.4,0,0.8-0.1,1.2-0.1s0.8,0,1.1,0l0.9,0.1c0.2,0,0.5,0.1,0.7,0.1l0.6,0.1l-0.6-0.1c-0.2,0-0.5-0.1-0.7-0.1h-0.9
					c-0.3,0-0.7,0.1-1.1,0.1s-0.8,0.2-1.2,0.2s-0.8,0.2-1.2,0.4s-0.8,0.3-1.2,0.5c-1.5,0.6-2.9,1.4-4.3,2.3
					c-1.1,0.8-1.8,1.3-1.8,1.3c-0.3,0.3-0.8,0.2-1.1-0.1s-0.2-0.8,0.1-1.1L144,103.1L144,103.1z"/>
			</g>
			<g id="_Group_41">
				<path id="_Path_71" class="st2" d="M141.6,107.9c0,0,2.7-1.3,5.5-2.5c1.3-0.6,2.6-1,3.9-1.5c0.3-0.1,0.5-0.1,0.7-0.2
					c0.2,0,0.4-0.1,0.6-0.1c0.1,0,0.3,0,0.4,0l0,0c-0.1,0-0.2,0-0.4,0s-0.4,0.1-0.6,0.2c-0.2,0.1-0.4,0.2-0.7,0.3
					c-1.2,0.6-2.4,1.2-3.6,1.9c-2.6,1.5-5.1,3.1-5.1,3.1c-0.3,0.2-0.8,0.1-1-0.2C141.2,108.6,141.3,108.2,141.6,107.9L141.6,107.9z"
					/>
			</g>
			<path id="_Path_72" class="st2" d="M41.6,89l-0.1-0.2c0-0.3-0.2-0.5-0.5-0.6l-0.5-0.1c-0.2-0.1-0.5-0.1-0.7,0
				c-0.3,0.1-0.5,0.2-0.8,0.3c-0.4,0.2-0.7,0.6-0.8,1C38,89.6,38,90,38.3,90.2c0.6,0.4,1.3,0.6,2,0.5c0.2,0,0.5-0.1,0.6-0.3
				c0.2-0.2,0.3-0.4,0.3-0.7c0.1-0.1,0.1-0.3,0.2-0.4C41.5,89.4,41.7,89.1,41.6,89z"/>
			<g id="_Group_42">
				<path id="_Path_73" class="st2" d="M179.5,72.1c0,0.4,0,0.8-0.1,1.2c-0.1,0.3-0.2,0.6-0.4,0.9c-0.2,0.2-0.6,0.4-0.8,0.7
					c-0.5,0.5-0.8,1-1.1,1.6c-0.1,0.2-0.2,0.4-0.2,0.6l-0.1,0.3h-0.2l-0.1-0.3c0-0.1-0.1-0.2-0.1-0.3c0-0.1,0-0.3-0.1-0.4
					c0-0.4,0-0.8,0.1-1.1c0.1-0.4,0.2-0.8,0.4-1.2c0.1-0.4,0.3-0.8,0.5-1.2c0.2-0.3,0.5-0.5,0.9-0.7s0.8-0.3,1.2-0.2L179.5,72.1z"/>
			</g>
			<path id="_Path_74" class="st2" d="M173.1,74.5c0,0,0-0.1-0.1-0.1c0-0.2-0.1-0.3-0.3-0.4l-0.3-0.1c-0.1,0-0.3,0-0.4,0
				c-0.2,0-0.3,0.1-0.5,0.2s-0.4,0.4-0.5,0.6s-0.1,0.4,0,0.5c0.3,0.2,0.8,0.4,1.2,0.3c0.1,0,0.3-0.1,0.4-0.2
				c0.1-0.1,0.2-0.2,0.2-0.4c0-0.1,0.1-0.2,0.1-0.2C173.1,74.8,173.2,74.6,173.1,74.5z"/>
			<g id="_Group_43">
				<path id="_Path_75" class="st2" d="M56.5,73.4C55.3,74,54,74.6,52.8,75c-1.3,0.5-2.6,0.8-3.9,1.2c-0.8,0.1-1.5,0.3-2.3,0.4
					s-1.6,0.2-2.4,0.3c-1.6,0.2-3.2,0.4-4.7,0.5c-0.8,0.1-1.5,0.1-2.2,0.1s-1.3,0-2-0.1c-0.5,0-1.1-0.1-1.6-0.2
					c-0.4-0.1-0.8-0.1-1.2-0.2l-1.1-0.2v-0.2l1.1,0.2c0.4,0.1,0.8,0.1,1.2,0.1c0.5,0,1.1,0,1.6,0c0.6,0,1.2,0,1.9-0.1
					s1.4-0.1,2.1-0.2c1.5-0.2,3-0.5,4.6-0.8s3.1-0.7,4.6-1s2.8-0.6,4-0.8C54.8,73.6,56.5,73.4,56.5,73.4L56.5,73.4z"/>
			</g>
			<path id="_Path_76" class="st2" d="M49.7,80.2C49.7,80.2,49.7,80.1,49.7,80.2c-0.1-0.3-0.2-0.4-0.4-0.4L49,79.7
				c-0.1,0-0.3,0-0.4,0c-0.2,0-0.3,0.1-0.5,0.2s-0.4,0.3-0.5,0.6c-0.1,0.2-0.1,0.4,0,0.5c0.3,0.2,0.8,0.4,1.2,0.3
				c0.1,0,0.3,0,0.4-0.2c0.1-0.1,0.2-0.2,0.2-0.4c0-0.1,0.1-0.2,0.1-0.2C49.7,80.5,49.8,80.3,49.7,80.2z"/>
		</g>
	</g>
</g>
</svg>
